<svg xmlns="http://www.w3.org/2000/svg" viewBox="0 0 64 64" role="img" aria-labelledby="title">
  <title id="title">Build</title>
  <path d="M36 7 38 14c2 .7 4 1.5 5.7 2.8l6.5-3.2 5.8 10-5.6 4.2c.2 1.2.3 2.5.3 4s-.1 2.8-.3 4l5.6 4.2-5.8 10-6.5-3.2A24 24 0 0 1 38 50l-2 7H24l-2-7a24 24 0 0 1-5.7-2.8l-6.5 3.2-5.8-10 5.6-4.2a26 26 0 0 1 0-8.1L4 24l5.8-10 6.5 3.2A24 24 0 0 1 22 14l2-7z" fill="#0a142b" stroke="#00d4ff" stroke-width="4" stroke-linejoin="round"/>
  <circle cx="30" cy="32" r="10" fill="none" stroke="#39ff14" stroke-width="4"/>
</svg>
