<svg xmlns="http://www.w3.org/2000/svg" viewBox="0 0 96 96" role="img" aria-labelledby="title desc">
  <title id="title">Bulb on</title>
  <desc id="desc">A powered glowing light bulb.</desc>
  <defs>
    <radialGradient id="lightBloom" cx="50%" cy="42%" r="54%">
      <stop offset="0" stop-color="#fffbd1" stop-opacity="0.98"/>
      <stop offset="0.42" stop-color="#ffe566" stop-opacity="0.78"/>
      <stop offset="1" stop-color="#ffad33" stop-opacity="0"/>
    </radialGradient>
    <linearGradient id="glassOn" x1="24" y1="11" x2="72" y2="77" gradientUnits="userSpaceOnUse">
      <stop offset="0" stop-color="#fff9c4"/>
      <stop offset="0.55" stop-color="#ffe566"/>
      <stop offset="1" stop-color="#ffba3d"/>
    </linearGradient>
    <filter id="warmGlow" x="-60%" y="-60%" width="220%" height="220%">
      <feGaussianBlur stdDeviation="4" result="blur"/>
      <feColorMatrix in="blur" type="matrix" values="0 0 0 0 1 0 0 0 0 0.86 0 0 0 0 0.18 0 0 0 0.95 0"/>
      <feMerge>
        <feMergeNode/>
        <feMergeNode in="SourceGraphic"/>
      </feMerge>
    </filter>
  </defs>
  <circle cx="48" cy="43" r="38" fill="url(#lightBloom)"/>
  <path d="M68 39c0 11.4-6.5 17.3-11.4 23.1-2.2 2.7-3 5.3-3 8H42.4c0-2.7-.8-5.3-3-8C34.5 56.3 28 50.4 28 39c0-11 8.6-20 20-20s20 9 20 20Z" fill="#2a1d09" stroke="url(#glassOn)" stroke-width="4" filter="url(#warmGlow)"/>
  <path d="M37 38c2.9-7.1 9.8-10.3 17.2-7.8" stroke="#fffce8" stroke-width="3" stroke-linecap="round" opacity="0.8"/>
  <path d="M43 70h10M41 76h14M44 82h8" stroke="#ffe566" stroke-width="5" stroke-linecap="round"/>
  <path d="M40 43c5.5-5.2 10.5 5.2 16 0" stroke="#fff7a0" stroke-width="3.4" stroke-linecap="round" fill="none"/>
  <path d="M48 5v8M20 18l6 6M76 18l-6 6M12 46h8M84 46h-8" stroke="#ffe566" stroke-width="4" stroke-linecap="round" opacity="0.86"/>
</svg>
