<svg xmlns="http://www.w3.org/2000/svg" viewBox="0 0 96 96" role="img" aria-labelledby="title desc">
  <title id="title">Bulb off</title>
  <desc id="desc">An unpowered glass light bulb.</desc>
  <defs>
    <linearGradient id="glassOff" x1="24" y1="11" x2="72" y2="77" gradientUnits="userSpaceOnUse">
      <stop offset="0" stop-color="#bfefff"/>
      <stop offset="1" stop-color="#34516b"/>
    </linearGradient>
    <filter id="coolGlow" x="-50%" y="-50%" width="200%" height="200%">
      <feGaussianBlur stdDeviation="2" result="blur"/>
      <feColorMatrix in="blur" type="matrix" values="0 0 0 0 0 0 0 0 0 0.82 0 0 0 0 1 0 0 0 0.35 0"/>
      <feMerge>
        <feMergeNode/>
        <feMergeNode in="SourceGraphic"/>
      </feMerge>
    </filter>
  </defs>
  <path d="M68 39c0 11.4-6.5 17.3-11.4 23.1-2.2 2.7-3 5.3-3 8H42.4c0-2.7-.8-5.3-3-8C34.5 56.3 28 50.4 28 39c0-11 8.6-20 20-20s20 9 20 20Z" fill="#0a142b" stroke="url(#glassOff)" stroke-width="4" filter="url(#coolGlow)"/>
  <path d="M38 36c2.4-6.3 8.4-9.4 14.8-7.8" stroke="#dffcff" stroke-width="3" stroke-linecap="round" opacity="0.45"/>
  <path d="M43 70h10M41 76h14M44 82h8" stroke="#7e9bb5" stroke-width="5" stroke-linecap="round"/>
  <path d="M40 43c5.5-5.2 10.5 5.2 16 0" stroke="#6d8da8" stroke-width="3" stroke-linecap="round" fill="none"/>
</svg>
